<svg width="16" height="16" viewBox="0 0 16 16" fill="none" xmlns="http://www.w3.org/2000/svg">
<path d="M2 5.99998H14M4.66667 9.99998H6M4.13333 12.6666H11.8667C12.6134 12.6666 12.9868 12.6666 13.272 12.5213C13.5229 12.3935 13.7268 12.1895 13.8547 11.9386C14 11.6534 14 11.28 14 10.5333V5.46665C14 4.71991 14 4.34654 13.8547 4.06133C13.7268 3.81044 13.5229 3.60647 13.272 3.47864C12.9868 3.33331 12.6134 3.33331 11.8667 3.33331H4.13333C3.3866 3.33331 3.01323 3.33331 2.72801 3.47864C2.47713 3.60647 2.27316 3.81044 2.14532 4.06133C2 4.34654 2 4.71991 2 5.46665V10.5333C2 11.2801 2 11.6534 2.14532 11.9386C2.27316 12.1895 2.47713 12.3935 2.72801 12.5213C3.01323 12.6666 3.3866 12.6666 4.13333 12.6666Z" stroke="url(#paint0_linear_9629_315)" stroke-linecap="round" stroke-linejoin="round"/>
<defs>
<linearGradient id="paint0_linear_9629_315" x1="8" y1="3.33331" x2="8" y2="12.6666" gradientUnits="userSpaceOnUse">
<stop stop-color="#AF8A39"/>
<stop offset="0.413462" stop-color="#FFDE7D"/>
<stop offset="1" stop-color="#AF8A39"/>
</linearGradient>
</defs>
</svg>
