<svg width="24" height="24" viewBox="0 0 24 24" fill="none" xmlns="http://www.w3.org/2000/svg">
<path opacity="0.1" d="M12 24C18.6274 24 24 18.6274 24 12C24 5.37258 18.6274 0 12 0C5.37258 0 0 5.37258 0 12C0 18.6274 5.37258 24 12 24Z" fill="#3AB83A"/>
<mask id="mask0_9617_8730" style="mask-type:luminance" maskUnits="userSpaceOnUse" x="0" y="0" width="24" height="24">
<path d="M12 24C18.6274 24 24 18.6274 24 12C24 5.37258 18.6274 0 12 0C5.37258 0 0 5.37258 0 12C0 18.6274 5.37258 24 12 24Z" fill="white"/>
</mask>
<g mask="url(#mask0_9617_8730)">
<path fill-rule="evenodd" clip-rule="evenodd" d="M9.23077 11.3778L12.4748 9.26912L15.6923 11.3909L12.4607 5.53845L9.23077 11.3778ZM9.35452 11.9869L12.4783 9.92837L15.5615 11.9716L12.4801 14.0323L9.35452 11.9869ZM9.23077 12.5763C10.3693 13.3229 11.5573 14.1044 12.4748 14.709L15.6923 12.5763C14.5273 14.7134 13.5567 16.4925 12.4748 18.4615L11.8113 17.2589C10.92 15.6433 10.0009 13.9773 9.23077 12.5763Z" fill="#3AB83A"/>
<path fill-rule="evenodd" clip-rule="evenodd" d="M12.4615 5.53845L12.4737 9.26912L15.6923 11.3909L12.4615 5.53845ZM12.4767 9.92837L15.5802 11.9716L12.4782 14.0323L12.4767 9.92837ZM12.4737 14.709L15.6923 12.5763C14.694 14.7134 12.4737 18.4615 12.4737 18.4615V14.709Z" fill="#0B8311"/>
</g>
</svg>
