<svg width="18" height="18" viewBox="0 0 18 18" fill="none" xmlns="http://www.w3.org/2000/svg">
<path d="M11.25 9C11.25 10.2426 10.2426 11.25 9 11.25C7.75736 11.25 6.75 10.2426 6.75 9C6.75 7.75736 7.75736 6.75 9 6.75C10.2426 6.75 11.25 7.75736 11.25 9Z" stroke="url(#paint0_linear_9614_231)" stroke-width="1.2" stroke-linecap="round" stroke-linejoin="round"/>
<path d="M9.00033 3.75C5.64211 3.75 2.79939 5.95716 1.84369 8.99997C2.79938 12.0428 5.6421 14.25 9.00035 14.25C12.3586 14.25 15.2013 12.0428 16.157 9.00003C15.2013 5.95719 12.3586 3.75 9.00033 3.75Z" stroke="url(#paint1_linear_9614_231)" stroke-width="1.2" stroke-linecap="round" stroke-linejoin="round"/>
<defs>
<linearGradient id="paint0_linear_9614_231" x1="9.00034" y1="3.75" x2="9.00034" y2="14.25" gradientUnits="userSpaceOnUse">
<stop stop-color="#AF8A39"/>
<stop offset="0.413462" stop-color="#FFDE7D"/>
<stop offset="1" stop-color="#AF8A39"/>
</linearGradient>
<linearGradient id="paint1_linear_9614_231" x1="9.00034" y1="3.75" x2="9.00034" y2="14.25" gradientUnits="userSpaceOnUse">
<stop stop-color="#AF8A39"/>
<stop offset="0.413462" stop-color="#FFDE7D"/>
<stop offset="1" stop-color="#AF8A39"/>
</linearGradient>
</defs>
</svg>
