<svg width="25" height="24" viewBox="0 0 25 24" fill="none" xmlns="http://www.w3.org/2000/svg">
<path d="M13.6 3H8.79998C7.67987 3 7.11982 3 6.69199 3.21799C6.31567 3.40973 6.00971 3.71569 5.81796 4.09202C5.59998 4.51984 5.59998 5.0799 5.59998 6.2V17.8C5.59998 18.9201 5.59998 19.4802 5.81796 19.908C6.00971 20.2843 6.31567 20.5903 6.69199 20.782C7.11982 21 7.67987 21 8.79998 21H12.6M13.6 3L19.6 9M13.6 3V7.4C13.6 7.96005 13.6 8.24008 13.709 8.45399C13.8048 8.64215 13.9578 8.79513 14.146 8.89101C14.3599 9 14.6399 9 15.2 9H19.6M19.6 9V10M9.59998 17H11.6M9.59998 13H12.6M9.59998 9H10.6M21.6 15.21C21.5318 15.2141 21.3357 15.21 21.2666 15.21C20.2422 15.21 19.3076 14.7524 18.6 14C17.8923 14.7524 16.9578 15.2099 15.9333 15.2099C15.8642 15.2099 15.6683 15.2141 15.6001 15.21C15.6001 15.21 15.6 15.9855 15.6 16.3979C15.6 18.6121 16.8747 20.4725 18.6 21C20.3252 20.4725 21.6 18.6121 21.6 16.3979C21.6 15.9855 21.6 15.21 21.6 15.21Z" stroke="url(#paint0_linear_9772_1099)" stroke-linecap="round" stroke-linejoin="round"/>
<defs>
<linearGradient id="paint0_linear_9772_1099" x1="13.6" y1="3" x2="13.6" y2="21" gradientUnits="userSpaceOnUse">
<stop stop-color="#AF8A39"/>
<stop offset="0.413462" stop-color="#FFDE7D"/>
<stop offset="1" stop-color="#AF8A39"/>
</linearGradient>
</defs>
</svg>
