<svg width="25" height="24" viewBox="0 0 25 24" fill="none" xmlns="http://www.w3.org/2000/svg">
<path d="M17.5 14V20M14.5 17H20.5M16.1 10H18.9C19.4601 10 19.7401 10 19.954 9.89101C20.1422 9.79513 20.2951 9.64215 20.391 9.45399C20.5 9.24008 20.5 8.96005 20.5 8.4V5.6C20.5 5.03995 20.5 4.75992 20.391 4.54601C20.2951 4.35785 20.1422 4.20487 19.954 4.10899C19.7401 4 19.4601 4 18.9 4H16.1C15.5399 4 15.2599 4 15.046 4.10899C14.8578 4.20487 14.7049 4.35785 14.609 4.54601C14.5 4.75992 14.5 5.03995 14.5 5.6V8.4C14.5 8.96005 14.5 9.24008 14.609 9.45399C14.7049 9.64215 14.8578 9.79513 15.046 9.89101C15.2599 10 15.5399 10 16.1 10ZM6.1 10H8.9C9.46005 10 9.74008 10 9.95399 9.89101C10.1422 9.79513 10.2951 9.64215 10.391 9.45399C10.5 9.24008 10.5 8.96005 10.5 8.4V5.6C10.5 5.03995 10.5 4.75992 10.391 4.54601C10.2951 4.35785 10.1422 4.20487 9.95399 4.10899C9.74008 4 9.46005 4 8.9 4H6.1C5.53995 4 5.25992 4 5.04601 4.10899C4.85785 4.20487 4.70487 4.35785 4.60899 4.54601C4.5 4.75992 4.5 5.03995 4.5 5.6V8.4C4.5 8.96005 4.5 9.24008 4.60899 9.45399C4.70487 9.64215 4.85785 9.79513 5.04601 9.89101C5.25992 10 5.53995 10 6.1 10ZM6.1 20H8.9C9.46005 20 9.74008 20 9.95399 19.891C10.1422 19.7951 10.2951 19.6422 10.391 19.454C10.5 19.2401 10.5 18.9601 10.5 18.4V15.6C10.5 15.0399 10.5 14.7599 10.391 14.546C10.2951 14.3578 10.1422 14.2049 9.95399 14.109C9.74008 14 9.46005 14 8.9 14H6.1C5.53995 14 5.25992 14 5.04601 14.109C4.85785 14.2049 4.70487 14.3578 4.60899 14.546C4.5 14.7599 4.5 15.0399 4.5 15.6V18.4C4.5 18.9601 4.5 19.2401 4.60899 19.454C4.70487 19.6422 4.85785 19.7951 5.04601 19.891C5.25992 20 5.53995 20 6.1 20Z" stroke="url(#paint0_linear_9617_8763)" stroke-width="2" stroke-linecap="round" stroke-linejoin="round"/>
<defs>
<linearGradient id="paint0_linear_9617_8763" x1="12.5" y1="4" x2="12.5" y2="20" gradientUnits="userSpaceOnUse">
<stop stop-color="#AF8A39"/>
<stop offset="0.413462" stop-color="#FFDE7D"/>
<stop offset="1" stop-color="#AF8A39"/>
</linearGradient>
</defs>
</svg>
