<svg width="24" height="24" viewBox="0 0 24 24" fill="none" xmlns="http://www.w3.org/2000/svg">
<g clip-path="url(#clip0_9772_1102)">
<path d="M12.6115 23C12.1785 23 11.8285 23 11.4213 23C11.4213 22.2087 11.4213 21.4243 11.4213 20.6181C9.53582 20.4203 7.93611 19.711 6.62141 18.4043C5.30514 17.0953 4.57693 15.5063 4.37961 13.6115C3.59737 13.6115 2.80965 13.6115 2 13.6115C2 13.1971 2 12.8382 2 12.4229C2.77989 12.4229 3.56605 12.4229 4.37256 12.4229C4.56832 10.5376 5.28087 8.94154 6.5893 7.62938C7.90009 6.31486 9.49197 5.58918 11.3892 5.39134C11.3892 4.60936 11.3892 3.82346 11.3892 3.01489C11.8042 3.01489 12.1637 3.01489 12.5794 3.01489C12.5794 3.79375 12.5794 4.57886 12.5794 5.38508C14.4665 5.57902 16.0647 6.29062 17.3786 7.5981C18.6949 8.90714 19.4223 10.4969 19.6196 12.3917C20.4026 12.3917 21.1896 12.3917 22 12.3917C22 12.8061 22 13.165 22 13.5803C21.2201 13.5803 20.4347 13.5803 19.6274 13.5803C19.4309 15.4641 18.7191 17.0609 17.4107 18.373C16.0999 19.6876 14.5088 20.4148 12.6115 20.6111C12.6115 21.3915 12.6115 22.1782 12.6115 23ZM12 19.4428C15.5612 19.4428 18.4333 16.5823 18.4498 13.0196C18.4662 9.45452 15.5745 6.55806 11.9984 6.55884C8.43724 6.55962 5.56511 9.41933 5.54867 12.9813C5.53379 16.5463 8.4255 19.4428 12 19.4428Z" fill="url(#paint0_linear_9772_1102)"/>
<path d="M2.0094 3C3.38517 3 4.72728 3 6.09913 3C6.09913 3.3777 6.09913 3.74679 6.09913 4.15968C5.13132 4.15968 4.16115 4.15968 3.16201 4.15968C3.16201 5.1614 3.16201 6.12089 3.16201 7.10854C2.76345 7.10854 2.39386 7.10854 2.0094 7.10854C2.0094 5.73929 2.0094 4.37082 2.0094 3Z" fill="url(#paint1_linear_9772_1102)"/>
<path d="M21.9907 7.12734C21.607 7.12734 21.2562 7.12734 20.8615 7.12734C20.8615 6.15064 20.8615 5.18176 20.8615 4.16988C19.8491 4.16988 18.8789 4.16988 17.8907 4.16988C17.8907 3.76716 17.8907 3.40744 17.8907 3.0188C19.2524 3.0188 20.6141 3.0188 21.9907 3.0188C21.9907 4.38805 21.9907 5.75652 21.9907 7.12734Z" fill="url(#paint2_linear_9772_1102)"/>
<path d="M2.00464 18.8837C2.39302 18.8837 2.75321 18.8837 3.14316 18.8837C3.14316 19.8611 3.14316 20.8206 3.14316 21.8231C4.14151 21.8231 5.11168 21.8231 6.10455 21.8231C6.10455 22.2352 6.10455 22.6043 6.10455 22.9922C4.73739 22.9922 3.38511 22.9922 2.00464 22.9922C2.00464 21.6316 2.00464 20.2725 2.00464 18.8837Z" fill="url(#paint3_linear_9772_1102)"/>
<path d="M21.9945 22.993C20.6172 22.993 19.2657 22.993 17.8931 22.993C17.8931 22.6161 17.8931 22.2564 17.8931 21.8529C18.8578 21.8529 19.8279 21.8529 20.8412 21.8529C20.8412 20.8418 20.8412 19.8729 20.8412 18.8853C21.2444 18.8853 21.6046 18.8853 21.9945 18.8853C21.9945 20.242 21.9945 21.6011 21.9945 22.993Z" fill="url(#paint4_linear_9772_1102)"/>
<path d="M11.3798 15.3287C10.9969 15.3287 10.6359 15.3287 10.2405 15.3287C10.2405 14.9502 10.2405 14.5889 10.2405 14.2019C9.84823 14.2019 9.49039 14.2019 9.08008 14.2019C9.08008 14.5694 9.08008 14.9385 9.08008 15.3271C8.66899 15.3271 8.3088 15.3271 7.92669 15.3271C7.91259 15.2591 7.88519 15.1872 7.88519 15.1152C7.88205 14.23 7.87422 13.3448 7.88675 12.4596C7.89772 11.7042 8.23285 11.1302 8.93131 10.8135C9.58278 10.5187 10.2358 10.5836 10.7518 11.0661C11.0361 11.3328 11.3242 11.7425 11.3516 12.1077C11.4315 13.1649 11.3798 14.2331 11.3798 15.3287ZM9.09339 12.9788C9.47473 12.9788 9.83413 12.9788 10.2131 12.9788C10.2178 12.591 10.3588 12.1726 9.95159 11.9411C9.79498 11.852 9.499 11.8536 9.34318 11.9451C8.93992 12.1804 9.08243 12.5957 9.09339 12.9788Z" fill="url(#paint5_linear_9772_1102)"/>
<path d="M12.6131 10.6212C13.2051 10.6572 13.7751 10.6267 14.3154 10.7385C15.4844 10.9794 16.2252 12.0835 16.0889 13.2729C15.9543 14.4522 14.9708 15.335 13.7774 15.3467C13.4 15.3506 13.0218 15.3475 12.6123 15.3475C12.6131 13.7851 12.6131 12.243 12.6131 10.6212ZM13.7947 14.1503C14.5166 14.0917 14.9645 13.5873 14.9191 12.9109C14.8784 12.3025 14.4015 11.8575 13.7947 11.874C13.7947 12.6317 13.7947 13.3902 13.7947 14.1503Z" fill="url(#paint6_linear_9772_1102)"/>
</g>
<defs>
<linearGradient id="paint0_linear_9772_1102" x1="12" y1="3.01489" x2="12" y2="23" gradientUnits="userSpaceOnUse">
<stop stop-color="#AF8A39"/>
<stop offset="0.413462" stop-color="#FFDE7D"/>
<stop offset="1" stop-color="#AF8A39"/>
</linearGradient>
<linearGradient id="paint1_linear_9772_1102" x1="4.05427" y1="3" x2="4.05427" y2="7.10854" gradientUnits="userSpaceOnUse">
<stop stop-color="#AF8A39"/>
<stop offset="0.413462" stop-color="#FFDE7D"/>
<stop offset="1" stop-color="#AF8A39"/>
</linearGradient>
<linearGradient id="paint2_linear_9772_1102" x1="19.9407" y1="3.0188" x2="19.9407" y2="7.12734" gradientUnits="userSpaceOnUse">
<stop stop-color="#AF8A39"/>
<stop offset="0.413462" stop-color="#FFDE7D"/>
<stop offset="1" stop-color="#AF8A39"/>
</linearGradient>
<linearGradient id="paint3_linear_9772_1102" x1="4.0546" y1="18.8837" x2="4.0546" y2="22.9922" gradientUnits="userSpaceOnUse">
<stop stop-color="#AF8A39"/>
<stop offset="0.413462" stop-color="#FFDE7D"/>
<stop offset="1" stop-color="#AF8A39"/>
</linearGradient>
<linearGradient id="paint4_linear_9772_1102" x1="19.9438" y1="18.8853" x2="19.9438" y2="22.993" gradientUnits="userSpaceOnUse">
<stop stop-color="#AF8A39"/>
<stop offset="0.413462" stop-color="#FFDE7D"/>
<stop offset="1" stop-color="#AF8A39"/>
</linearGradient>
<linearGradient id="paint5_linear_9772_1102" x1="9.63808" y1="10.6361" x2="9.63808" y2="15.3287" gradientUnits="userSpaceOnUse">
<stop stop-color="#AF8A39"/>
<stop offset="0.413462" stop-color="#FFDE7D"/>
<stop offset="1" stop-color="#AF8A39"/>
</linearGradient>
<linearGradient id="paint6_linear_9772_1102" x1="14.3587" y1="10.6212" x2="14.3587" y2="15.3487" gradientUnits="userSpaceOnUse">
<stop stop-color="#AF8A39"/>
<stop offset="0.413462" stop-color="#FFDE7D"/>
<stop offset="1" stop-color="#AF8A39"/>
</linearGradient>
<clipPath id="clip0_9772_1102">
<rect width="20" height="20" fill="white" transform="translate(2 3)"/>
</clipPath>
</defs>
</svg>
