<svg width="375" height="44" viewBox="0 0 375 44" fill="none" xmlns="http://www.w3.org/2000/svg">
<rect width="375" height="44" fill="#131414"/>
<path d="M295.667 24.3337C296.219 24.3337 296.667 24.7814 296.667 25.3337V27.3337C296.666 27.8858 296.219 28.3337 295.667 28.3337H294.667C294.114 28.3337 293.667 27.8858 293.667 27.3337V25.3337C293.667 24.7814 294.114 24.3337 294.667 24.3337H295.667ZM300.334 22.3337C300.886 22.3338 301.334 22.7815 301.334 23.3337V27.3337C301.333 27.8857 300.886 28.3335 300.334 28.3337H299.334C298.781 28.3337 298.334 27.8858 298.334 27.3337V23.3337C298.334 22.7814 298.781 22.3337 299.334 22.3337H300.334ZM305 19.9997C305.552 19.9997 305.999 20.4475 306 20.9997V27.3337C305.999 27.8858 305.552 28.3337 305 28.3337H304C303.448 28.3335 303 27.8857 303 27.3337V20.9997C303 20.4476 303.448 19.9998 304 19.9997H305ZM309.667 17.6667C310.219 17.6667 310.667 18.1144 310.667 18.6667V27.3337C310.666 27.8858 310.219 28.3337 309.667 28.3337H308.667C308.114 28.3337 307.667 27.8858 307.667 27.3337V18.6667C307.667 18.1144 308.114 17.6667 308.667 17.6667H309.667Z" fill="white"/>
<path opacity="0.4" d="M359 21V25C359.805 24.6612 360.328 23.8731 360.328 23C360.328 22.1269 359.805 21.3388 359 21Z" fill="white"/>
<path opacity="0.35" d="M338.667 17.8333H355.333C356.53 17.8333 357.5 18.8037 357.5 20.0003V26.0003C357.5 27.1968 356.53 28.1663 355.333 28.1663H338.667C337.47 28.1663 336.5 27.1968 336.5 26.0003V20.0003L336.511 19.7786C336.622 18.686 337.545 17.8333 338.667 17.8333Z" fill="white" stroke="#223263"/>
<path d="M338 20.6667C338 19.9303 338.597 19.3333 339.333 19.3333H354.667C355.403 19.3333 356 19.9303 356 20.6667V25.3333C356 26.0697 355.403 26.6667 354.667 26.6667H339.333C338.597 26.6667 338 26.0697 338 25.3333V20.6667Z" fill="white"/>
<path d="M321.12 25.7312C322.396 24.6524 324.265 24.6524 325.54 25.7312C325.604 25.7893 325.641 25.8714 325.643 25.9578C325.645 26.0443 325.611 26.1277 325.549 26.1883L323.552 28.2039C323.494 28.2631 323.414 28.2966 323.33 28.2967C323.247 28.2967 323.167 28.2631 323.109 28.2039L321.111 26.1883C321.049 26.1277 321.015 26.0442 321.017 25.9578C321.019 25.8714 321.056 25.7892 321.12 25.7312ZM318.455 23.0418C321.204 20.4857 325.459 20.4858 328.207 23.0418C328.269 23.1016 328.305 23.1842 328.306 23.2703C328.307 23.3565 328.273 23.4396 328.212 23.5008L327.058 24.6678C326.939 24.7869 326.746 24.7895 326.624 24.6736C325.722 23.8564 324.548 23.404 323.33 23.4041C322.114 23.4046 320.94 23.857 320.038 24.6736C319.916 24.7894 319.724 24.7868 319.605 24.6678L318.451 23.5008C318.39 23.4397 318.356 23.3564 318.357 23.2703C318.358 23.1842 318.393 23.1016 318.455 23.0418ZM315.79 20.3601C320.006 16.321 326.656 16.3207 330.87 20.3601C330.931 20.4201 330.966 20.5022 330.966 20.5877C330.967 20.6732 330.933 20.7555 330.872 20.8162L329.716 21.9832C329.597 22.1027 329.404 22.1039 329.284 21.9861C327.678 20.4594 325.546 19.6083 323.33 19.6082C321.114 19.6082 318.982 20.4592 317.376 21.9861C317.256 22.1041 317.063 22.1029 316.944 21.9832L315.787 20.8162C315.727 20.7554 315.693 20.6733 315.694 20.5877C315.694 20.5022 315.729 20.4201 315.79 20.3601Z" fill="white"/>
<path d="M40.6097 28H42.4994V17.4312H40.6171L37.8558 19.3721V21.1519L40.4852 19.2915H40.6097V28Z" fill="white"/>
<path d="M33.3439 28H35.153V25.9712H36.5812V24.4111H35.153V17.4312H32.4869C31.0514 19.6138 29.5499 22.0454 28.1803 24.4258V25.9712H33.3439V28ZM29.9308 24.3452C30.9635 22.5508 32.1866 20.5952 33.2706 18.9399H33.3732V24.4551H29.9308V24.3452Z" fill="white"/>
<path d="M25.1698 21.1592C25.8656 21.1592 26.3417 20.6758 26.3417 20.0239C26.3417 19.3721 25.8656 18.8887 25.1698 18.8887C24.4813 18.8887 23.9979 19.3721 23.9979 20.0239C23.9979 20.6758 24.4813 21.1592 25.1698 21.1592ZM25.1698 26.5352C25.8656 26.5352 26.3417 26.0444 26.3417 25.3999C26.3417 24.748 25.8656 24.2646 25.1698 24.2646C24.4813 24.2646 23.9979 24.748 23.9979 25.3999C23.9979 26.0444 24.4813 26.5352 25.1698 26.5352Z" fill="white"/>
<path d="M17.8672 28.2563C20.5552 28.2563 22.1519 26.1543 22.1519 22.5874C22.1519 19.0864 20.4526 17.1675 17.9258 17.1675C15.626 17.1675 14 18.7129 14 20.8735C14 22.9023 15.4648 24.3818 17.479 24.3818C18.7168 24.3818 19.7202 23.8105 20.2183 22.8071H20.3428C20.3208 25.29 19.4346 26.7109 17.8892 26.7109C16.981 26.7109 16.2559 26.2129 16.0288 25.4072H14.1465C14.4541 27.1284 15.9336 28.2563 17.8672 28.2563ZM17.9331 22.9243C16.7026 22.9243 15.853 22.0601 15.853 20.8149C15.853 19.6211 16.7466 18.7056 17.9404 18.7056C19.1343 18.7056 20.0278 19.6357 20.0278 20.8516C20.0278 22.0527 19.1562 22.9243 17.9331 22.9243Z" fill="white"/>
</svg>
