<svg width="24" height="24" viewBox="0 0 24 24" fill="none" xmlns="http://www.w3.org/2000/svg">
<path d="M12 16.9999H12.01M12 9.99995V13.9999M6.41209 20.9999H17.588C19.3696 20.9999 20.2604 20.9999 20.783 20.6253C21.2389 20.2983 21.5365 19.7949 21.6033 19.2379C21.6798 18.5995 21.2505 17.8189 20.3918 16.2578L14.8039 6.09793C13.8897 4.43578 13.4326 3.6047 12.8286 3.32975C12.3022 3.09012 11.6978 3.09012 11.1714 3.32975C10.5674 3.6047 10.1103 4.43578 9.19614 6.09793L3.6082 16.2578C2.74959 17.8189 2.32028 18.5995 2.39677 19.2379C2.46351 19.7949 2.76116 20.2983 3.21709 20.6253C3.7396 20.9999 4.63043 20.9999 6.41209 20.9999Z" stroke="#E5604E" stroke-linecap="round" stroke-linejoin="round"/>
</svg>
