<svg width="163" height="70" viewBox="0 0 163 70" fill="none" xmlns="http://www.w3.org/2000/svg">
<path d="M1 0.999999L12.9787 9.34832C13.6497 9.81595 14.4479 10.0667 15.2657 10.0667H25.2449C25.907 10.0667 26.5586 10.231 27.1415 10.5449L41.3717 18.2084C42.4557 18.7921 43.7481 18.8442 44.8756 18.3495L61.9282 10.8666C63.0763 10.3628 64.3943 10.4265 65.4885 11.0387L93.6337 26.7854C94.1138 27.054 94.5332 27.4186 94.8659 27.8566L109.497 47.117C110.851 48.8997 113.404 49.224 115.161 47.8364L124.716 40.2895C126.202 39.1154 128.309 39.1449 129.762 40.3603L164 69" stroke="#FF4E95" stroke-width="1.5"/>
</svg>
