<svg width="24" height="12" viewBox="0 0 24 12" fill="none" xmlns="http://www.w3.org/2000/svg">
<path d="M4.77386 9.83302C4.40968 10.8959 4.13334 11.0947 3.02476 11.0958C2.22145 11.0958 1.4192 11.0861 0.615882 11.1001C0.19173 11.1066 -0.00106637 10.9381 4.7245e-06 10.4952C0.00750236 7.49112 0.00750236 4.48596 4.7245e-06 1.48189C-0.00106637 1.06709 0.179948 0.891014 0.578394 0.892094C1.52417 0.896415 2.46994 0.876971 3.41464 0.900736C4.18583 0.92018 4.51894 1.26693 4.78992 2.28125C5.83959 2.28125 6.9064 2.29637 7.97213 2.27693C8.8108 2.2618 9.61411 2.39899 10.335 2.83108C11.6985 3.6488 13.1573 3.99123 14.7361 3.83351C14.9299 3.81407 15.1281 3.83027 15.3241 3.83135C16.6919 3.83351 17.296 4.36498 17.5038 5.80058C18.6209 5.37606 19.7252 4.9537 20.8327 4.53781C21.0983 4.43843 21.3672 4.32501 21.6446 4.2818C22.735 4.11221 23.6454 4.71281 23.9292 5.76061C24.1959 6.74361 23.6925 7.75253 22.6921 8.15977C21.3061 8.72364 19.9094 9.25943 18.5181 9.80817C17.0603 10.3839 15.6069 10.9705 14.1438 11.5354C12.3133 12.2419 10.516 12.1404 8.76795 11.2438C8.1328 10.9176 7.4955 10.5946 6.87962 10.2359C6.21661 9.8503 5.52041 9.72824 4.77386 9.83302ZM4.74494 8.96345C6.24018 8.67611 7.35518 9.5392 8.55373 10.1463C8.83972 10.291 9.1182 10.4541 9.40846 10.5892C10.7645 11.22 12.1772 11.3378 13.5686 10.8106C16.5162 9.69259 19.4403 8.51192 22.3687 7.34421C23.0338 7.07955 23.2855 6.47464 23.0424 5.86107C22.8025 5.25724 22.1887 4.95478 21.5471 5.20863C19.8452 5.8816 18.1603 6.5967 16.4616 7.27831C16.1692 7.39498 15.8446 7.48355 15.533 7.48896C14.1234 7.51164 12.7139 7.4976 11.3043 7.49976C10.9701 7.50084 10.6552 7.42738 10.6627 7.02878C10.6702 6.64747 10.9894 6.62154 11.2936 6.62154C12.6142 6.62479 13.9338 6.62587 15.2545 6.62046C15.4666 6.61938 15.6861 6.61182 15.8896 6.55781C16.3684 6.43035 16.5901 6.07388 16.5826 5.59534C16.5762 5.13625 16.1917 4.74197 15.7268 4.71497C15.2823 4.68904 14.8335 4.68256 14.389 4.71281C12.9656 4.81003 11.6128 4.57562 10.3853 3.81947C8.59551 2.71657 6.64291 3.33986 4.74387 3.14326C4.74494 5.12221 4.74494 7.00178 4.74494 8.96345ZM0.900792 1.77355C0.900792 4.63935 0.900792 7.41766 0.900792 10.2241C1.73946 10.2241 2.53956 10.223 3.34074 10.2241C3.70169 10.2241 3.85593 10.0253 3.85593 9.68179C3.85593 7.2189 3.85593 4.75494 3.85486 2.28989C3.85486 1.96907 3.70598 1.77571 3.37287 1.77463C2.5567 1.77139 1.74053 1.77355 0.900792 1.77355Z" fill="url(#paint0_linear_9750_2997)"/>
<defs>
<linearGradient id="paint0_linear_9750_2997" x1="12" y1="0.888672" x2="12" y2="11.9998" gradientUnits="userSpaceOnUse">
<stop stop-color="#AF8A39"/>
<stop offset="0.413462" stop-color="#FFDE7D"/>
<stop offset="1" stop-color="#AF8A39"/>
</linearGradient>
</defs>
</svg>
