<svg width="165" height="70" viewBox="0 0 165 70" fill="none" xmlns="http://www.w3.org/2000/svg">
<path d="M1 69L12.9787 60.6517C13.6497 60.184 14.4479 59.9333 15.2657 59.9333H25.2449C25.907 59.9333 26.5586 59.769 27.1415 59.4551L41.3717 51.7916C42.4557 51.2079 43.7481 51.1558 44.8756 51.6505L61.9282 59.1334C63.0763 59.6372 64.3943 59.5735 65.4885 58.9613L93.6337 43.2146C94.1138 42.946 94.5332 42.5814 94.8659 42.1434L109.497 22.883C110.851 21.1003 113.404 20.776 115.161 22.1636L124.716 29.7105C126.202 30.8846 128.309 30.8551 129.762 29.6397L164 1" stroke="#00C3B6" stroke-width="1.5"/>
</svg>
