<svg width="24" height="25" viewBox="0 0 24 25" fill="none" xmlns="http://www.w3.org/2000/svg">
<path d="M13.6163 18.6613H10.4222V24.6541C10.4222 24.8285 10.0502 24.8889 9.91114 24.9035C6.92747 25.2134 3.44964 24.656 0.412416 24.9026L0.0789134 24.7613L0 11.1153L2.52993 5.84659L7.22903 5.79981L7.27224 4.72404L9.38787 0H14.6506L16.7381 4.55936L16.8518 5.70822L21.5095 5.84659L24.0009 10.9604L23.9605 24.7613L23.627 24.9026L13.807 24.848C13.7629 24.8266 13.6173 24.6716 13.6173 24.6551V18.6623L13.6163 18.6613ZM13.9921 0.829241H10.0464V13.6917H13.9921V0.829241ZM16.0589 16.3227V5.06802L14.8376 2.38833V14.0328C14.8376 14.1692 15.8569 16.084 16.0589 16.3227ZM9.20092 14.0328V2.48577L8.0238 5.01637C7.85752 5.48897 8.06889 5.98496 8.07735 6.42832C8.14123 9.69072 8.02098 12.9629 8.07453 16.2253L9.20092 14.0338V14.0328ZM7.22809 6.57838H3.32939L3.18848 6.72455V19.7819L3.32939 19.9281H7.22809V6.57838ZM20.85 6.57838H16.9513V19.9281H20.85V6.57838ZM2.43692 20.1717V8.04003L0.839864 11.2069V22.8514L2.43692 20.1717ZM23.2926 22.8514V11.3044L21.6955 8.13747V20.2691C21.6955 20.4231 23.0427 22.6068 23.2926 22.8514ZM15.777 17.7843L14.1809 14.519L9.9957 14.4645L9.84914 14.5317L8.35542 17.7843H15.777ZM9.67065 18.6613H8.07359V20.2691C8.07359 20.4231 9.42075 22.6068 9.67065 22.8514V18.6613ZM16.0589 18.6613H14.4618V22.8514L16.0589 20.1717V18.6613ZM9.29487 24.0207L7.32016 20.7583L3.09359 20.7564L1.21564 24.0217H9.29487V24.0207ZM14.8376 24.0207H22.9168L21.0473 20.771L20.8998 20.7008L16.7155 20.7564L14.8376 24.0217V24.0207Z" fill="black"/>
</svg>
