<svg width="24" height="12" viewBox="0 0 24 12" fill="none" xmlns="http://www.w3.org/2000/svg">
<path d="M4.77386 9.83314C4.40968 10.8961 4.13334 11.0948 3.02476 11.0959C2.22145 11.0959 1.4192 11.0862 0.615882 11.1002C0.19173 11.1067 -0.00106637 10.9382 4.7245e-06 10.4953C0.00750236 7.49124 0.00750236 4.48609 4.7245e-06 1.48201C-0.00106637 1.06721 0.179948 0.891136 0.578394 0.892216C1.52417 0.896537 2.46994 0.877093 3.41464 0.900858C4.18583 0.920302 4.51894 1.26705 4.78992 2.28137C5.83959 2.28137 6.9064 2.29649 7.97213 2.27705C8.8108 2.26193 9.61411 2.39911 10.335 2.8312C11.6985 3.64892 13.1573 3.99135 14.7361 3.83364C14.9299 3.81419 15.1281 3.8304 15.3241 3.83148C16.6919 3.83364 17.296 4.3651 17.5038 5.8007C18.6209 5.37618 19.7252 4.95382 20.8327 4.53794C21.0983 4.43856 21.3672 4.32513 21.6446 4.28192C22.735 4.11233 23.6454 4.71293 23.9292 5.76074C24.1959 6.74373 23.6925 7.75265 22.6921 8.15989C21.3061 8.72376 19.9094 9.25955 18.5181 9.8083C17.0603 10.384 15.6069 10.9706 14.1438 11.5356C12.3133 12.242 10.516 12.1405 8.76795 11.2439C8.1328 10.9177 7.4955 10.5947 6.87962 10.2361C6.21661 9.85042 5.52041 9.72836 4.77386 9.83314ZM4.74494 8.96357C6.24018 8.67623 7.35518 9.53932 8.55373 10.1464C8.83972 10.2912 9.1182 10.4543 9.40846 10.5893C10.7645 11.2201 12.1772 11.3379 13.5686 10.8107C16.5162 9.69271 19.4403 8.51204 22.3687 7.34433C23.0338 7.07968 23.2855 6.47476 23.0424 5.8612C22.8025 5.25736 22.1887 4.9549 21.5471 5.20875C19.8452 5.88172 18.1603 6.59682 16.4616 7.27844C16.1692 7.3951 15.8446 7.48368 15.533 7.48908C14.1234 7.51176 12.7139 7.49772 11.3043 7.49988C10.9701 7.50096 10.6552 7.42751 10.6627 7.02891C10.6702 6.64759 10.9894 6.62167 11.2936 6.62167C12.6142 6.62491 13.9338 6.62599 15.2545 6.62059C15.4666 6.61951 15.6861 6.61194 15.8896 6.55793C16.3684 6.43047 16.5901 6.074 16.5826 5.59546C16.5762 5.13637 16.1917 4.7421 15.7268 4.71509C15.2823 4.68917 14.8335 4.68268 14.389 4.71293C12.9656 4.81015 11.6128 4.57574 10.3853 3.81959C8.59551 2.7167 6.64291 3.33998 4.74387 3.14338C4.74494 5.12233 4.74494 7.0019 4.74494 8.96357ZM0.900792 1.77367C0.900792 4.63948 0.900792 7.41778 0.900792 10.2242C1.73946 10.2242 2.53956 10.2231 3.34074 10.2242C3.70169 10.2242 3.85593 10.0254 3.85593 9.68191C3.85593 7.21903 3.85593 4.75506 3.85486 2.29001C3.85486 1.96919 3.70598 1.77583 3.37287 1.77475C2.5567 1.77151 1.74053 1.77367 0.900792 1.77367Z" fill="url(#paint0_linear_9772_1117)"/>
<defs>
<linearGradient id="paint0_linear_9772_1117" x1="12" y1="0.888794" x2="12" y2="11.9999" gradientUnits="userSpaceOnUse">
<stop stop-color="#AF8A39"/>
<stop offset="0.413462" stop-color="#FFDE7D"/>
<stop offset="1" stop-color="#AF8A39"/>
</linearGradient>
</defs>
</svg>
